<svg width="17" height="16" viewBox="0 0 17 16" fill="none" xmlns="http://www.w3.org/2000/svg">
<path fill-rule="evenodd" clip-rule="evenodd" d="M0.625 2.09375C0.625 1.007 1.50963 0.125 2.59375 0.125H5.21875C6.3055 0.125 7.1875 1.00963 7.1875 2.09375V4.71875C7.1875 5.8055 6.30288 6.6875 5.21875 6.6875H2.59375C1.507 6.6875 0.625 5.80288 0.625 4.71875V2.09375ZM0.625 11.2812C0.625 10.1945 1.50963 9.3125 2.59375 9.3125H5.21875C6.3055 9.3125 7.1875 10.1971 7.1875 11.2812V13.9062C7.1875 14.993 6.30288 15.875 5.21875 15.875H2.59375C1.507 15.875 0.625 14.9904 0.625 13.9062V11.2812ZM9.8125 2.09375C9.8125 1.007 10.6971 0.125 11.7812 0.125H14.4062C15.493 0.125 16.375 1.00963 16.375 2.09375V4.71875C16.375 5.8055 15.4904 6.6875 14.4062 6.6875H11.7812C10.6945 6.6875 9.8125 5.80288 9.8125 4.71875V2.09375ZM9.8125 11.2812C9.8125 10.1945 10.6971 9.3125 11.7812 9.3125H14.4062C15.493 9.3125 16.375 10.1971 16.375 11.2812V13.9062C16.375 14.993 15.4904 15.875 14.4062 15.875H11.7812C10.6945 15.875 9.8125 14.9904 9.8125 13.9062V11.2812Z" fill="#333333"/>
</svg>
