<svg width="11" height="14" viewBox="0 0 11 14" fill="none" xmlns="http://www.w3.org/2000/svg">
<path fill-rule="evenodd" clip-rule="evenodd" d="M4.01053 0.0247202C3.8178 0.0721794 3.65387 0.171031 3.52262 0.318849C3.37234 0.488135 3.3192 0.613994 3.28042 0.892587C3.24609 1.13945 3.19005 1.24388 3.04309 1.33509C2.94595 1.39537 2.87281 1.39897 1.74411 1.39907L0.548069 1.3992L0.375826 1.49078C-0.021642 1.70208 -0.12245 2.21079 0.163227 2.56349C0.217786 2.63081 0.321396 2.71318 0.393508 2.74651C0.519212 2.80462 0.729718 2.80714 5.4985 2.80783L10.4724 2.80855L10.6114 2.74005C11.123 2.48801 11.1312 1.75967 10.6254 1.49078L10.4532 1.3992L9.25713 1.39907C8.12047 1.39897 8.05587 1.39573 7.95612 1.33381C7.81985 1.24928 7.72317 1.08514 7.72304 0.938112C7.72268 0.59328 7.48738 0.231174 7.16827 0.0844376L6.99825 0.00623479L5.56503 0.000531827C4.77677 -0.00258186 4.07726 0.00829963 4.01053 0.0247202ZM1.23318 4.21548C0.884408 4.30296 0.687526 4.5672 0.694032 4.93897C0.701247 5.35142 1.21521 11.4811 1.26526 11.7515C1.45654 12.7855 2.24039 13.6256 3.29443 13.9265C3.54845 13.999 3.57956 14 5.50062 14C7.42168 14 7.45279 13.999 7.70681 13.9265C8.64581 13.6584 9.37262 12.964 9.65228 12.0677C9.70291 11.9054 9.75325 11.7063 9.76416 11.6252C9.7995 11.3628 10.3033 5.159 10.3072 4.93897C10.3127 4.62806 10.1927 4.41643 9.9291 4.27209L9.80027 4.20152L5.56503 4.19637C3.23566 4.19356 1.28632 4.20214 1.23318 4.21548Z" fill="#3A5385"/>
</svg>
