<svg width="18" height="18" viewBox="0 0 18 18" fill="none" xmlns="http://www.w3.org/2000/svg">
<path d="M17.7552 15.5633L14.2499 12.058C14.0917 11.8997 13.8772 11.8118 13.6522 11.8118H13.0791C14.0495 10.5707 14.6261 9.00968 14.6261 7.31151C14.6261 3.27176 11.3528 -0.00152588 7.31303 -0.00152588C3.27329 -0.00152588 0 3.27176 0 7.31151C0 11.3513 3.27329 14.6245 7.31303 14.6245C9.01121 14.6245 10.5723 14.0479 11.8134 13.0776V13.6506C11.8134 13.8757 11.9013 14.0901 12.0595 14.2483L15.5648 17.7537C15.8953 18.0842 16.4297 18.0842 16.7567 17.7537L17.7517 16.7587C18.0822 16.4282 18.0822 15.8938 17.7552 15.5633ZM7.31303 11.8118C4.82731 11.8118 2.81271 9.80075 2.81271 7.31151C2.81271 4.82578 4.82379 2.81118 7.31303 2.81118C9.79876 2.81118 11.8134 4.82226 11.8134 7.31151C11.8134 9.79724 9.80228 11.8118 7.31303 11.8118Z" fill="#333333"/>
</svg>
