<svg width="20" height="18" viewBox="0 0 20 18" fill="none" xmlns="http://www.w3.org/2000/svg">
<path fill-rule="evenodd" clip-rule="evenodd" d="M0.725624 0.0501771C0.518152 0.113595 0.180506 0.410374 0.0831777 0.614826C0.0292708 0.728192 0.000636979 0.889453 9.63341e-06 1.08407C-0.00115544 1.43734 0.103298 1.67806 0.34608 1.88148C0.666116 2.14965 0.691344 2.15354 2.25451 2.17719L3.681 2.19874L3.80365 2.32986C3.90868 2.44211 4.13381 3.15784 5.37058 7.3118C6.39355 10.7475 6.8616 12.2549 6.97501 12.4789C7.26857 13.0584 7.92257 13.5504 8.56995 13.6787C8.73494 13.7114 10.036 13.7221 12.8387 13.7138L16.8701 13.702L17.1614 13.6027C17.7934 13.3872 18.3233 13.0093 18.6877 12.5141C19.0969 11.9581 19.1269 11.8404 19.5868 8.99553C20.034 6.22946 20.0674 5.86751 19.925 5.34186C19.7186 4.58011 19.1321 3.88457 18.4161 3.55234C17.7137 3.22644 18.1321 3.24645 12.0231 3.24645H6.54515L6.45665 2.9578C6.40794 2.79901 6.30501 2.46016 6.22794 2.20469C6.04744 1.6069 5.93111 1.36267 5.6696 1.03275C5.30032 0.566846 4.76174 0.232735 4.13251 0.0791708C3.82924 0.00514718 3.63987 -0.00310619 2.3332 0.00078529C1.44734 0.00343663 0.814931 0.0228512 0.725624 0.0501771ZM17.4106 5.51454C17.4924 5.56278 17.6007 5.68525 17.6533 5.78891L17.7483 5.97617L17.3622 8.40659C17.1498 9.74329 16.9568 10.9083 16.9331 10.9954C16.8816 11.1853 16.7097 11.3902 16.5175 11.4907C16.3889 11.5579 16.0776 11.565 12.7694 11.576C9.88764 11.5858 9.14585 11.5772 9.08352 11.5333C9.02975 11.4955 8.72692 10.5478 8.10948 8.48498C7.6167 6.83858 7.21349 5.47712 7.21349 5.45946C7.21349 5.44184 9.47458 5.42739 12.2382 5.42739C17.2156 5.42739 17.2642 5.4282 17.4106 5.51454ZM8.47289 14.2616C8.10885 14.355 7.81534 14.5261 7.5502 14.7993C6.79931 15.5734 6.82687 16.7428 7.61284 17.4583C8.0238 17.8323 8.45353 17.9984 9.01312 17.9993C9.7857 18.0007 10.4741 17.5791 10.8124 16.8975C10.9482 16.6241 10.9552 16.585 10.9552 16.0969C10.9552 15.6115 10.9477 15.5687 10.8164 15.3058C10.39 14.4518 9.41844 14.0189 8.47289 14.2616ZM16.3548 14.2625C15.8191 14.3993 15.3377 14.7938 15.0821 15.3058C14.9508 15.5687 14.9433 15.6115 14.9433 16.0969C14.9433 16.5843 14.9504 16.6244 15.0851 16.8957C15.5822 17.8971 16.805 18.2859 17.8539 17.776C18.1401 17.6368 18.5252 17.2553 18.6776 16.9598C19.0569 16.2247 18.9312 15.4003 18.3482 14.7993C17.8457 14.2814 17.0841 14.0763 16.3548 14.2625Z" fill="#333333"/>
<path d="M17.4106 5.51454C17.4924 5.56278 17.6007 5.68525 17.6533 5.78891L17.7483 5.97617L17.3622 8.40659C17.1498 9.74329 16.9568 10.9083 16.9331 10.9954C16.8816 11.1853 16.7097 11.3902 16.5175 11.4907C16.3889 11.5579 16.0776 11.565 12.7694 11.576C9.88764 11.5858 9.14585 11.5772 9.08352 11.5333C9.02975 11.4955 8.72692 10.5478 8.10948 8.48498C7.6167 6.83858 7.21349 5.47712 7.21349 5.45946C7.21349 5.44184 9.47458 5.42739 12.2382 5.42739C17.2156 5.42739 17.2642 5.4282 17.4106 5.51454Z" fill="#333333"/>
</svg>
