<svg width="24" height="24" viewBox="0 0 24 24" fill="none" xmlns="http://www.w3.org/2000/svg">
<path fill-rule="evenodd" clip-rule="evenodd" d="M15.8037 7.6742V9.21962H17.5317C18.482 9.21962 19.2596 9.20712 19.2596 9.19188C19.2596 9.13754 18.7311 8.29417 18.4844 7.95495C17.9853 7.26866 17.5008 6.8368 16.8743 6.51999C16.6104 6.38653 15.9175 6.12878 15.8225 6.12878C15.8122 6.12878 15.8037 6.82422 15.8037 7.6742Z" fill="#3A5385"/>
<path fill-rule="evenodd" clip-rule="evenodd" d="M2.77046 6.08852C2.48466 6.24224 2.44336 6.39339 2.44336 7.28613V8.06055V9.34722V10.599V11.8805V13.1697V14.4569V15.4889C2.44336 16.9983 2.44319 16.9981 3.61532 17.0326L4.3447 17.054L4.43716 17.333C4.56504 17.7191 4.72806 17.9859 5.01389 18.2771C5.96007 19.2408 7.48213 19.241 8.4281 18.2775C8.71423 17.986 8.87721 17.7194 9.00529 17.333L9.09785 17.054H12.3055H15.5132L15.6058 17.333C15.7338 17.7192 15.8969 17.986 16.1826 18.2771C17.1288 19.2408 18.6508 19.241 19.5968 18.2775C19.883 17.9859 20.046 17.7192 20.1739 17.333L20.2663 17.054L20.9115 17.0326C21.6517 17.0079 21.7765 16.9653 21.9144 16.6899C21.9959 16.5272 21.9991 16.4396 21.9991 14.3817C21.9991 12.0543 21.9916 11.965 21.7572 11.5264C21.6088 11.2487 21.2582 10.9273 20.9291 10.7673C20.4029 10.5115 20.368 10.5088 17.5795 10.5081L15.0354 10.5075L14.8673 10.4112C14.534 10.2204 14.5393 10.2593 14.5393 7.99788V6L8.73366 6.00189C3.03669 6.00378 2.92509 6.00537 2.77046 6.08852ZM7.8802 16.5389C7.8802 16.1208 7.59332 15.6625 7.20776 15.4647C7.01145 15.364 6.60044 15.3435 6.35911 15.4224C6.12183 15.5001 5.80101 15.7803 5.67706 16.0182C5.54561 16.2705 5.54561 16.8073 5.67706 17.0595C5.96327 17.6088 6.69973 17.8735 7.21164 17.611C7.59323 17.4154 7.8802 16.9552 7.8802 16.5389ZM19.0489 16.5389C19.0489 16.1208 18.762 15.6625 18.3765 15.4647C18.1802 15.364 17.7691 15.3435 17.5278 15.4224C17.2905 15.5001 16.9697 15.7803 16.8458 16.0182C16.7143 16.2705 16.7143 16.8073 16.8458 17.0595C17.132 17.6088 17.8684 17.8735 18.3804 17.611C18.7619 17.4154 19.0489 16.9552 19.0489 16.5389Z" fill="#3A5385"/>
</svg>
