<svg width="164" height="58" viewBox="0 0 164 58" fill="none" xmlns="http://www.w3.org/2000/svg">
<path d="M82 0L0 15.2161V42.784L82 58L164 42.784V15.2161L82 0Z" fill="#E7EAF2"/>
<path fill-rule="evenodd" clip-rule="evenodd" d="M17.9715 18.128C18.4772 18.2839 19.235 18.5786 19.6556 18.7828C21.0773 19.4727 22.807 21.4356 23.0837 22.6729C23.1477 22.9588 23.2837 23.3058 23.386 23.444C23.4901 23.5847 23.5981 24.6342 23.6317 25.8304C23.6835 27.6801 23.6411 28.1251 23.3149 29.1593C22.6479 31.2736 21.5719 32.6246 19.8104 33.5598C19.039 33.9693 17.0532 34.3886 15.3384 34.5041L13.9592 34.5968V39.9305H7.7737V17.722L12.4128 17.7832C16.0138 17.8307 17.2578 17.9078 17.9715 18.128ZM38.8167 19.344C38.926 20.1809 39.096 21.1476 39.1943 21.4922C39.2928 21.8368 39.4426 22.5618 39.5275 23.1033C39.7704 24.6546 40.3432 27.8983 40.6339 29.3687C40.7798 30.1072 41.0487 31.5572 41.2315 32.591C41.4143 33.6247 41.6764 35.0747 41.814 35.8132C41.9516 36.5516 42.1567 37.7599 42.2699 38.4984L42.4757 39.841L39.3852 39.8898C36.5753 39.9342 36.2789 39.9099 36.1206 39.6213C36.025 39.4468 35.8615 38.4133 35.7574 37.3248C35.4695 34.3143 35.6835 34.5601 33.3507 34.5601H31.3661L31.268 35.4104C31.214 35.8782 31.1008 36.6635 31.0166 37.1558C30.9321 37.648 30.8143 38.4738 30.7543 38.9906L30.6454 39.9305H24.118L24.2314 39.5277C24.2939 39.3061 24.484 38.3193 24.6538 37.3348C24.8237 36.3502 25.0897 34.9002 25.2448 34.1126C25.5442 32.5929 25.9959 30.0599 26.4028 27.6191C26.5387 26.8046 26.6904 26.0676 26.7402 25.9815C26.7898 25.8955 26.9089 25.1925 27.0048 24.4194C27.1006 23.6462 27.2513 22.8124 27.3394 22.5663C27.4275 22.3201 27.5681 21.6354 27.6516 21.0447C27.7352 20.4539 27.8994 19.4659 28.0164 18.8492L28.2291 17.7279L38.6177 17.8224L38.8167 19.344ZM50.9052 34.5601H58.6391L58.5333 35.1419C58.2499 36.7016 57.9258 38.3124 57.7409 39.0801L57.5359 39.9305H44.5525V17.7329H50.9052V34.5601ZM73.532 19.0308C73.8022 20.4451 74.032 21.736 74.3875 23.8365C74.5138 24.5843 74.6919 25.5107 74.7828 25.8952C74.8736 26.2795 74.9973 26.9968 75.0577 27.4891C75.1179 27.9814 75.236 28.6258 75.3201 28.9212C75.4666 29.435 75.7752 31.0502 76.2435 33.7545C76.3627 34.4437 76.6186 35.8535 76.812 36.8872C77.0054 37.921 77.2084 39.0286 77.2632 39.3487L77.3629 39.9305H70.8381L70.7293 38.7221C70.6693 38.0576 70.5523 37.1513 70.469 36.7082C70.3859 36.2652 70.2722 35.6007 70.2166 35.2314L70.1153 34.5601H66.1796L65.9835 35.6789C65.8757 36.2944 65.7446 37.3214 65.6923 37.9613C65.5129 40.1567 65.9059 39.9305 62.27 39.9305H59.0968V39.3415C59.0968 39.0177 59.213 38.2753 59.3548 37.6919C59.4967 37.1085 59.6764 36.1853 59.754 35.6404C59.8826 34.7371 60.6683 30.3955 61.0995 28.2051C61.6899 25.2056 62.2597 22.1252 62.5231 20.5076C62.6515 19.72 62.8393 18.7735 62.9406 18.4042L63.1248 17.7329H73.2841L73.532 19.0308ZM90.9439 18.0108C93.9775 18.7336 95.4126 19.4992 96.9364 21.2081C97.6724 22.0335 98.8848 23.984 98.8848 24.3426C98.8848 24.423 99.0353 24.9931 99.2192 25.6095C99.695 27.2043 99.6893 30.5285 99.2076 32.3665C98.6379 34.5404 97.4904 36.3554 95.8624 37.6575C95.1672 38.2136 93.764 39.0354 93.5098 39.0354C93.4136 39.0354 93.0978 39.1521 92.8081 39.295C91.8517 39.7661 89.7287 39.9305 84.5986 39.9305H79.5313L79.4305 39.5277C79.2919 38.974 79.2979 18.0009 79.4367 17.8523C79.4979 17.7866 81.8489 17.7327 84.6609 17.7324C88.6782 17.732 90.0245 17.7916 90.9439 18.0108ZM108.915 40.2885H102.563V17.7329H108.915V40.2885ZM119.448 24.7223C119.448 30.4965 119.493 31.9075 119.711 32.8373C120.035 34.2153 120.463 34.5601 121.853 34.5601C122.647 34.5601 122.867 34.4826 123.332 34.0379L123.878 33.5157L123.974 17.7329H130.314V25.3948C130.314 32.2283 130.28 33.2202 130.001 34.5692C129.828 35.4011 129.491 36.4442 129.252 36.8872C129.012 37.3303 128.771 37.8136 128.716 37.9613C128.534 38.4464 127.075 39.4985 125.967 39.9423C124.956 40.3477 124.66 40.378 121.704 40.378C119.08 40.378 118.426 40.3259 117.943 40.0785C117.621 39.9138 117.151 39.7239 116.898 39.6562C116.358 39.5121 114.806 37.9459 114.38 37.1146C114.216 36.7967 113.924 36.0717 113.729 35.5035C113.393 34.5191 113.373 34.0775 113.307 26.1018L113.239 17.7329H119.448V24.7223ZM141.314 18.5872C141.618 19.0528 142.468 20.3197 143.203 21.4027C143.938 22.4857 144.723 23.6715 144.949 24.0379C145.4 24.7728 145.635 24.7733 146.065 24.0402C146.647 23.0516 146.785 22.8393 146.961 22.6599C147.263 22.3525 148.369 20.6068 148.369 20.4369C148.369 20.3492 148.482 20.231 148.62 20.1743C148.758 20.1177 148.871 19.9604 148.871 19.8249C148.871 19.6894 149.021 19.4326 149.205 19.2545C149.389 19.0764 149.539 18.8666 149.539 18.7886C149.539 18.7103 149.717 18.4409 149.935 18.1898L150.33 17.7329H156.561V39.9305H150.208V33.486C150.208 29.5259 150.147 27.0416 150.049 27.0416C149.961 27.0416 149.646 27.4241 149.349 27.8919C148.902 28.5936 147.594 30.5255 147.076 31.2484C147.006 31.3468 146.653 31.8907 146.293 32.4567C145.933 33.0229 145.577 33.486 145.501 33.486C145.426 33.486 145.175 33.184 144.945 32.8147C144.165 31.5643 142.855 29.6398 142.434 29.1265C142.205 28.8457 142.016 28.5535 142.016 28.4772C142.016 28.401 141.896 28.2313 141.748 28.1002C141.601 27.969 141.414 27.6772 141.334 27.4517C141.254 27.2261 141.074 27.0416 140.934 27.0416C140.71 27.0416 140.679 27.8305 140.679 33.486V39.9305H134.493V17.7329L140.762 17.741L141.314 18.5872ZM14.0328 23.5143C13.987 23.6419 13.9706 24.9106 13.9962 26.3338L14.0428 28.9212L15.0459 28.9187C16.3824 28.9155 16.993 28.445 17.3828 27.118C17.5375 26.5917 17.6177 25.9764 17.561 25.7511C17.2091 24.3476 17.0619 24.0406 16.5665 23.6772C15.9399 23.2175 14.1797 23.1044 14.0328 23.5143ZM32.8043 24.0431C32.7605 24.4616 32.6467 25.2872 32.5512 25.878C32.4558 26.4687 32.3289 27.536 32.2694 28.2499L32.1612 29.5477H34.6931L34.5951 28.7869C34.488 27.9549 34.0553 24.7919 33.9218 23.8641C33.8499 23.3647 33.7706 23.2823 33.3609 23.2823C32.9235 23.2823 32.8772 23.3457 32.8043 24.0431ZM67.6192 23.5956C67.6171 23.768 67.5006 24.7547 67.3602 25.7885C67.2196 26.8223 67.0616 28.0911 67.0088 28.6079L66.9127 29.5477H69.4997L69.4036 28.966C69.3506 28.6461 69.2291 27.7397 69.1334 26.9521C69.0377 26.1644 68.8706 25.0166 68.762 24.4011C68.5754 23.3435 68.5388 23.2823 68.0938 23.2823C67.7581 23.2823 67.6218 23.3724 67.6192 23.5956ZM85.6779 34.597L87.7258 34.5271C89.9827 34.4504 90.6604 34.2098 91.6732 33.1253C92.6386 32.0913 92.9238 31.1327 92.9238 28.9212C92.9238 26.7412 92.6799 25.8937 91.7223 24.7456C90.7756 23.6103 90.1808 23.3929 87.8094 23.3158L85.6779 23.2463V34.597Z" fill="#333333"/>
</svg>
