<svg width="136" height="50" viewBox="0 0 136 50" fill="none" xmlns="http://www.w3.org/2000/svg">
<path d="M68 0.5L0 13.3549V36.6451L68 49.5L136 36.6451V13.3549L68 0.5Z" fill="#3A5385"/>
<path fill-rule="evenodd" clip-rule="evenodd" d="M14.9032 15.815C15.3225 15.9468 15.951 16.1957 16.2998 16.3683C17.4787 16.9511 18.9132 18.6094 19.1426 19.6547C19.1957 19.8963 19.3084 20.1893 19.3932 20.3061C19.4796 20.425 19.5692 21.3117 19.597 22.3222C19.64 23.8849 19.6048 24.2609 19.3343 25.1346C18.7812 26.9208 17.8889 28.0622 16.4281 28.8522C15.7885 29.1982 14.1416 29.5524 12.7197 29.65L11.5759 29.7283V34.2344H6.44649V15.472L10.2936 15.5238C13.2798 15.5638 14.3113 15.629 14.9032 15.815ZM32.1894 16.8424C32.2801 17.5494 32.4211 18.3661 32.5026 18.6572C32.5843 18.9483 32.7085 19.5608 32.7789 20.0183C32.9804 21.3289 33.4553 24.0693 33.6964 25.3115C33.8174 25.9354 34.0403 27.1604 34.192 28.0337C34.3435 28.9071 34.5609 30.1321 34.675 30.756C34.7891 31.3798 34.9592 32.4006 35.0531 33.0245L35.2237 34.1587L32.6609 34.2C30.3308 34.2375 30.085 34.217 29.9537 33.9732C29.8744 33.8257 29.7388 32.9526 29.6524 32.033C29.4137 29.4897 29.5912 29.6973 27.6567 29.6973H26.0109L25.9296 30.4157C25.8848 30.8109 25.7909 31.4743 25.7211 31.8902C25.651 32.3061 25.5533 33.0038 25.5035 33.4404L25.4133 34.2344H20.0003L20.0943 33.8941C20.1462 33.7068 20.3038 32.8732 20.4446 32.0415C20.5855 31.2097 20.8061 29.9847 20.9347 29.3192C21.183 28.0354 21.5576 25.8954 21.895 23.8333C22.0077 23.1452 22.1335 22.5226 22.1748 22.4499C22.216 22.3773 22.3147 21.7834 22.3943 21.1302C22.4737 20.477 22.5986 19.7725 22.6717 19.5646C22.7447 19.3566 22.8613 18.7782 22.9306 18.2791C22.9999 17.78 23.1361 16.9454 23.2331 16.4244L23.4095 15.477L32.0245 15.5569L32.1894 16.8424ZM42.2141 29.6973H48.6276L48.5398 30.1888C48.3048 31.5065 48.036 32.8673 47.8827 33.516L47.7127 34.2344H36.946V15.4813H42.2141V29.6973ZM60.9778 16.5777C61.2018 17.7726 61.3924 18.8632 61.6872 20.6378C61.792 21.2695 61.9396 22.0521 62.015 22.377C62.0903 22.7017 62.1929 23.3077 62.243 23.7235C62.2929 24.1394 62.3909 24.6839 62.4606 24.9334C62.5821 25.3675 62.838 26.7321 63.2263 29.0168C63.3251 29.599 63.5374 30.79 63.6978 31.6634C63.8582 32.5367 64.0265 33.4724 64.0719 33.7428L64.1546 34.2344H58.7438L58.6536 33.2135C58.6038 32.6521 58.5068 31.8864 58.4377 31.5121C58.3688 31.1378 58.2746 30.5764 58.2284 30.2644L58.1444 29.6973H54.8806L54.718 30.6425C54.6286 31.1625 54.5199 32.0301 54.4765 32.5708C54.3278 34.4255 54.6537 34.2344 51.6385 34.2344H49.0071V33.7368C49.0071 33.4632 49.1035 32.836 49.2211 32.3432C49.3387 31.8503 49.4878 31.0704 49.5521 30.61C49.6587 29.8469 50.3103 26.179 50.6678 24.3285C51.1575 21.7944 51.63 19.192 51.8484 17.8254C51.9549 17.16 52.1106 16.3604 52.1946 16.0484L52.3474 15.4813H60.7722L60.9778 16.5777ZM75.4169 15.716C77.9326 16.3267 79.1226 16.9735 80.3863 18.4172C80.9967 19.1145 82.002 20.7624 82.002 21.0653C82.002 21.1332 82.1268 21.6149 82.2793 22.1356C82.6739 23.4829 82.6692 26.2914 82.2698 27.8441C81.7973 29.6807 80.8457 31.214 79.4957 32.3141C78.9191 32.7839 77.7556 33.4782 77.5447 33.4782C77.465 33.4782 77.2031 33.5768 76.9628 33.6975C76.1697 34.0955 74.4092 34.2344 70.1549 34.2344H65.9528L65.8692 33.8941C65.7543 33.4263 65.7593 15.7077 65.8743 15.5821C65.9251 15.5266 67.8747 15.4811 70.2066 15.4808C73.538 15.4805 74.6544 15.5309 75.4169 15.716ZM90.3201 34.5368H85.052V15.4813H90.3201V34.5368ZM99.054 21.3861C99.054 26.2643 99.0922 27.4563 99.2729 28.2418C99.5411 29.406 99.8965 29.6973 101.049 29.6973C101.707 29.6973 101.89 29.6318 102.275 29.2562L102.728 28.815L102.808 15.4813H108.065V21.9543C108.065 27.7273 108.037 28.5653 107.805 29.705C107.663 30.4078 107.383 31.2891 107.184 31.6634C106.986 32.0377 106.786 32.446 106.74 32.5708C106.589 32.9806 105.379 33.8694 104.461 34.2443C103.622 34.5869 103.377 34.6124 100.926 34.6124C98.749 34.6124 98.2073 34.5684 97.8063 34.3594C97.5395 34.2203 97.1495 34.0598 96.9396 34.0027C96.4918 33.8809 95.205 32.5578 94.8513 31.8554C94.716 31.5868 94.4734 30.9743 94.3122 30.4943C94.0329 29.6627 94.0163 29.2896 93.9622 22.5515L93.9052 15.4813H99.054V21.3861ZM117.188 16.203C117.44 16.5963 118.144 17.6666 118.754 18.5816C119.363 19.4965 120.015 20.4983 120.201 20.8079C120.576 21.4287 120.77 21.4292 121.127 20.8099C121.61 19.9746 121.724 19.7952 121.87 19.6437C122.121 19.384 123.038 17.9092 123.038 17.7657C123.038 17.6916 123.131 17.5917 123.246 17.5438C123.36 17.496 123.454 17.3631 123.454 17.2486C123.454 17.1341 123.578 16.9172 123.731 16.7668C123.883 16.6163 124.008 16.439 124.008 16.3731C124.008 16.307 124.156 16.0794 124.336 15.8672L124.664 15.4813H129.831V34.2344H124.563V28.7899C124.563 25.4443 124.512 23.3455 124.431 23.3455C124.358 23.3455 124.097 23.6687 123.85 24.0638C123.48 24.6567 122.395 26.2888 121.966 26.8995C121.907 26.9827 121.615 27.4421 121.316 27.9203C121.018 28.3987 120.722 28.7899 120.66 28.7899C120.597 28.7899 120.389 28.5348 120.198 28.2228C119.551 27.1664 118.465 25.5405 118.116 25.1069C117.926 24.8696 117.77 24.6228 117.77 24.5584C117.77 24.4939 117.67 24.3506 117.547 24.2399C117.425 24.129 117.271 23.8825 117.204 23.6919C117.138 23.5014 116.988 23.3455 116.872 23.3455C116.686 23.3455 116.661 24.0119 116.661 28.7899V34.2344H111.531V15.4813L116.73 15.4881L117.188 16.203ZM11.6369 20.3655C11.599 20.4734 11.5854 21.5452 11.6066 22.7475L11.6453 24.9334L12.4771 24.9313C13.5854 24.9286 14.0917 24.5311 14.415 23.41C14.5433 22.9654 14.6098 22.4456 14.5628 22.2552C14.271 21.0695 14.1489 20.8102 13.7381 20.5032C13.2185 20.1148 11.7588 20.0192 11.6369 20.3655ZM27.2036 20.8123C27.1673 21.1659 27.0729 21.8634 26.9937 22.3624C26.9146 22.8615 26.8093 23.7632 26.76 24.3663L26.6703 25.4627H28.7699L28.6887 24.82C28.5998 24.1171 28.241 21.4449 28.1302 20.661C28.0706 20.2391 28.0049 20.1695 27.6651 20.1695C27.3025 20.1695 27.2641 20.2231 27.2036 20.8123ZM56.0744 20.4342C56.0728 20.5798 55.9761 21.4134 55.8597 22.2868C55.7431 23.1602 55.6121 24.2321 55.5683 24.6688L55.4886 25.4627H57.6339L57.5542 24.9712C57.5103 24.701 57.4095 23.9353 57.3302 23.2698C57.2507 22.6044 57.1122 21.6347 57.0221 21.1147C56.8674 20.2213 56.8371 20.1695 56.468 20.1695C56.1896 20.1695 56.0766 20.2456 56.0744 20.4342ZM71.05 29.7285L72.7482 29.6695C74.6198 29.6046 75.1818 29.4013 76.0216 28.4852C76.8223 27.6116 77.0588 26.8018 77.0588 24.9334C77.0588 23.0917 76.8565 22.3757 76.0624 21.4057C75.2773 20.4466 74.7841 20.263 72.8175 20.1978L71.05 20.1391V29.7285Z" fill="white"/>
</svg>
