<svg width="18" height="18" viewBox="0 0 18 18" fill="none" xmlns="http://www.w3.org/2000/svg">
<path d="M13.0623 17.8161C5.96095 17.8161 0.183594 12.0387 0.183594 4.9374C0.18474 3.77382 0.609439 2.65045 1.37836 1.77713C2.14728 0.903815 3.20782 0.340281 4.36189 0.191798C4.59898 0.163304 4.83891 0.212354 5.04579 0.331607C5.25267 0.45086 5.41536 0.633902 5.50953 0.85334L7.3577 5.16558C7.42959 5.33288 7.4589 5.51539 7.44301 5.69679C7.42711 5.87819 7.3665 6.05282 7.26661 6.20506L5.73627 8.54337C5.70161 8.59524 5.68093 8.65519 5.67624 8.71741C5.67155 8.77962 5.68301 8.842 5.7095 8.89848C6.43776 10.3842 7.64244 11.5833 9.1314 12.3048C9.18822 12.3312 9.2509 12.3423 9.31331 12.3372C9.37572 12.332 9.43574 12.3108 9.4875 12.2755L11.7905 10.7398C11.9432 10.6377 12.119 10.5754 12.3019 10.5585C12.4848 10.5417 12.669 10.571 12.8377 10.6436L17.1464 12.4902C17.3658 12.5844 17.5488 12.747 17.668 12.9539C17.7872 13.1608 17.8363 13.4006 17.8079 13.6377C17.6594 14.7918 17.0959 15.8524 16.2226 16.6213C15.3493 17.3902 14.2259 17.815 13.0623 17.8161ZM4.4979 0.919189C4.48327 0.91918 4.46866 0.92011 4.45415 0.921974C3.47775 1.04768 2.5805 1.52455 1.93003 2.2635C1.27956 3.00245 0.920353 3.95294 0.919519 4.9374C0.919519 11.633 6.36673 17.0802 13.0623 17.0802C14.0468 17.0793 14.9973 16.7201 15.7362 16.0696C16.4752 15.4191 16.952 14.5219 17.0777 13.5454C17.0867 13.4669 17.07 13.3875 17.0301 13.3192C16.9902 13.2509 16.9292 13.1974 16.8564 13.1666L12.5479 11.3201C12.4916 11.2959 12.4302 11.2862 12.3692 11.2918C12.3082 11.2974 12.2496 11.3181 12.1987 11.3521L9.89571 12.8879C9.73735 12.9939 9.55416 13.057 9.36409 13.071C9.17402 13.085 8.98358 13.0494 8.8114 12.9676C7.17394 12.1741 5.8492 10.8553 5.04823 9.22144C4.96603 9.0503 4.92957 8.8609 4.94223 8.67145C4.95488 8.48201 5.01631 8.29907 5.12055 8.14037L6.65088 5.80207C6.68419 5.75129 6.70439 5.69305 6.70969 5.63255C6.71499 5.57206 6.70522 5.51119 6.68124 5.4554L4.83308 1.14333C4.80509 1.07739 4.75847 1.02107 4.69893 0.981251C4.63939 0.941436 4.56952 0.919867 4.4979 0.919189Z" fill="#333333"/>
<path d="M4.4979 0.919189C4.48327 0.91918 4.46866 0.92011 4.45415 0.921974C3.47775 1.04768 2.5805 1.52455 1.93003 2.2635C1.27956 3.00245 0.920353 3.95294 0.919519 4.9374C0.919519 11.633 6.36673 17.0802 13.0623 17.0802C14.0468 17.0793 14.9973 16.7201 15.7362 16.0696C16.4752 15.4191 16.952 14.5219 17.0777 13.5454C17.0867 13.4669 17.07 13.3875 17.0301 13.3192C16.9902 13.2509 16.9292 13.1974 16.8564 13.1666L12.5479 11.3201C12.4916 11.2959 12.4302 11.2862 12.3692 11.2918C12.3082 11.2974 12.2496 11.3181 12.1987 11.3521L9.89571 12.8879C9.73735 12.9939 9.55416 13.057 9.36409 13.071C9.17402 13.085 8.98358 13.0494 8.8114 12.9676C7.17394 12.1741 5.8492 10.8553 5.04823 9.22144C4.96603 9.0503 4.92957 8.8609 4.94223 8.67145C4.95488 8.48201 5.01631 8.29907 5.12055 8.14037L6.65088 5.80207C6.68419 5.75129 6.70439 5.69305 6.70969 5.63255C6.71499 5.57206 6.70522 5.51119 6.68124 5.4554L4.83308 1.14333C4.80509 1.07739 4.75847 1.02107 4.69893 0.981251C4.63939 0.941436 4.56952 0.919867 4.4979 0.919189Z" fill="#333333"/>
</svg>
